<svg width="80" height="78" viewBox="0 0 80 78" fill="none" xmlns="http://www.w3.org/2000/svg">
<ellipse cx="40" cy="39" rx="40" ry="39" fill="#B6A5FF"/>
<path d="M51.75 36.625C52.3875 36.625 53.0063 36.6812 53.625 36.775V23.5C53.625 21.4375 51.9375 19.75 49.875 19.75H27.375C25.3125 19.75 23.625 21.4375 23.625 23.5V53.5C23.625 55.5625 25.3125 57.25 27.375 57.25H40.9875C39.6141 55.2833 38.8063 52.9776 38.6521 50.5838C38.4979 48.19 39.0031 45.7997 40.1129 43.6731C41.2226 41.5464 42.8943 39.7648 44.9461 38.5221C46.9979 37.2795 49.3512 36.6233 51.75 36.625V36.625ZM31.125 36.625V23.5H40.5V36.625L35.8125 33.8125L31.125 36.625Z" fill="white"/>
<path d="M51.75 40.375C46.575 40.375 42.375 44.575 42.375 49.75C42.375 54.925 46.575 59.125 51.75 59.125C56.925 59.125 61.125 54.925 61.125 49.75C61.125 44.575 56.925 40.375 51.75 40.375ZM49.4062 54.4375V45.0625L56.9062 49.75L49.4062 54.4375Z" fill="white"/>
</svg>
