<svg width="80" height="79" viewBox="0 0 80 79" fill="none" xmlns="http://www.w3.org/2000/svg">
<path d="M79 39.5C79 60.7511 61.551 78 40 78C18.449 78 1 60.7511 1 39.5C1 18.2489 18.449 1 40 1C61.551 1 79 18.2489 79 39.5Z" fill="#B6A5FF" stroke="#B6A5FF" stroke-width="2"/>
<path d="M23.3333 24.25C21.0208 24.25 19.1666 26.1042 19.1666 28.4167V49.25C19.1666 50.3551 19.6056 51.4149 20.387 52.1963C21.1684 52.9777 22.2282 53.4167 23.3333 53.4167H40V63.8333L46.25 57.5833L52.5 63.8333V53.4167H56.6666C57.7717 53.4167 58.8315 52.9777 59.6129 52.1963C60.3943 51.4149 60.8333 50.3551 60.8333 49.25V28.4167C60.8333 27.3116 60.3943 26.2518 59.6129 25.4704C58.8315 24.689 57.7717 24.25 56.6666 24.25H23.3333ZM40 28.4167L46.25 32.5833L52.5 28.4167V35.7083L58.75 38.8333L52.5 41.9583V49.25L46.25 45.0833L40 49.25V41.9583L33.75 38.8333L40 35.7083V28.4167ZM23.3333 28.4167H33.75V32.5833H23.3333V28.4167ZM23.3333 36.75H29.5833V40.9167H23.3333V36.75ZM23.3333 45.0833H33.75V49.25H23.3333V45.0833Z" fill="white"/>
</svg>
