<svg width="80" height="80" viewBox="0 0 80 80" fill="none" xmlns="http://www.w3.org/2000/svg">
<circle cx="40" cy="40" r="40" fill="#B6A5FF"/>
<path fill-rule="evenodd" clip-rule="evenodd" d="M48.3334 33.7503C48.3334 35.9605 47.4554 38.0801 45.8926 39.6429C44.3298 41.2057 42.2102 42.0837 40.0001 42.0837C37.7899 42.0837 35.6703 41.2057 34.1075 39.6429C32.5447 38.0801 31.6667 35.9605 31.6667 33.7503C31.6667 31.5402 32.5447 29.4206 34.1075 27.8578C35.6703 26.295 37.7899 25.417 40.0001 25.417C42.2102 25.417 44.3298 26.295 45.8926 27.8578C47.4554 29.4206 48.3334 31.5402 48.3334 33.7503ZM44.1667 33.7503C44.1667 34.8554 43.7278 35.9152 42.9464 36.6966C42.165 37.478 41.1052 37.917 40.0001 37.917C38.895 37.917 37.8352 37.478 37.0538 36.6966C36.2724 35.9152 35.8334 34.8554 35.8334 33.7503C35.8334 32.6453 36.2724 31.5854 37.0538 30.804C37.8352 30.0226 38.895 29.5837 40.0001 29.5837C41.1052 29.5837 42.165 30.0226 42.9464 30.804C43.7278 31.5854 44.1667 32.6453 44.1667 33.7503Z" fill="white"/>
<path fill-rule="evenodd" clip-rule="evenodd" d="M40 17.0835C27.3438 17.0835 17.0834 27.3439 17.0834 40.0002C17.0834 52.6564 27.3438 62.9168 40 62.9168C52.6563 62.9168 62.9167 52.6564 62.9167 40.0002C62.9167 27.3439 52.6563 17.0835 40 17.0835ZM21.25 40.0002C21.25 44.3543 22.7355 48.3627 25.225 51.546C26.9734 49.25 29.229 47.3892 31.8155 46.1091C34.4021 44.8291 37.2495 44.1643 40.1355 44.1668C42.9841 44.1641 45.7957 44.8117 48.3561 46.0601C50.9166 47.3086 53.1583 49.125 54.9105 51.371C56.7156 49.0035 57.931 46.2402 58.4561 43.3097C58.9812 40.3793 58.8009 37.3659 57.9302 34.5189C57.0595 31.6719 55.5234 29.0732 53.449 26.9377C51.3745 24.8023 48.8214 23.1915 46.0008 22.2387C43.1803 21.2859 40.1734 21.0184 37.2289 21.4584C34.2845 21.8984 31.4871 23.0333 29.0683 24.769C26.6495 26.5048 24.6788 28.7916 23.3193 31.4402C21.9597 34.0887 21.2504 37.023 21.25 40.0002ZM40 58.7502C35.6958 58.7566 31.5214 57.2759 28.1834 54.5585C29.527 52.635 31.3153 51.0646 33.3963 49.9808C35.4772 48.8969 37.7892 48.3318 40.1355 48.3335C42.4525 48.3316 44.7365 48.8826 46.7978 49.9406C48.8591 50.9986 50.6383 52.5332 51.9875 54.4168C48.6236 57.2225 44.3804 58.7563 40 58.7502Z" fill="white"/>
</svg>
